<svg version="1.1" xmlns="http://www.w3.org/2000/svg" xmlns:xlink="http://www.w3.org/1999/xlink" width="700" height="700" viewBox="397.5,107.5,700,700"><g id="document" fill="#ffffff" fill-rule="nonzero" stroke="#000000" stroke-width="0" stroke-linecap="butt" stroke-linejoin="miter" stroke-miterlimit="10" stroke-dasharray="" stroke-dashoffset="0" font-family="none" font-weight="none" font-size="none" text-anchor="none" style="mix-blend-mode: normal"><rect x="397.5" y="76.78571" transform="scale(1,1.4)" width="700" height="500" id="Shape 1 1" vector-effect="non-scaling-stroke"/></g><g fill="none" fill-rule="nonzero" stroke="#000000" stroke-width="1" stroke-linecap="round" stroke-linejoin="round" stroke-miterlimit="10" stroke-dasharray="" stroke-dashoffset="0" font-family="none" font-weight="none" font-size="none" text-anchor="none" style="mix-blend-mode: normal"><g id="stage"><g id="layer1 1"><path d="M755.18869,532.45234" id="Path 1"/><path d="M754.21308,541.96454l1.21951,-9.5122l2.92683,-0.73171" id="Path 1"/><path d="M758.07248,531.79237c0,0 1.01865,10.41607 16.1406,10.90388" id="Path 1"/><path d="M774.21308,542.69625l2.92683,-1.95123c0,0 24.63415,2.19512 21.21951,-8.04878" id="Path 1"/><path d="M798.40866,532.84934l6.53613,-0.6409l0.4878,-2.68293l-2.43902,-0.97561l-4.63415,0.97561c0,0 2.43902,-12.43902 -20.97561,-6.82927" id="Path 1"/><path d="M777.38381,522.69624l-1.95122,-1.95122c0,0 -16.34146,0.4878 -15.85366,7.56098c0.4878,7.07317 -3.65854,0.2439 -3.65854,0.2439c0,0 -0.4878,-3.41463 25.85366,-50" id="Path 1"/><path d="M781.77405,478.5499c0,0 21.46342,-23.41463 -2.43902,-35.36585" id="Path 1"/><path d="M778.84723,442.69624l8.04878,-27.31707c0,0 5.12195,-12.19512 -16.82927,-21.21951" id="Path 1"/><path d="M769.33503,394.89137c0,0 6.34146,-30.4878 -19.5122,-30.4878c-25.85366,0 -21.70732,17.80488 -21.95122,35.60976" id="Path 1"/><path d="M727.38381,400.50112c0,0 -20.4878,4.14634 -12.19512,19.26829c8.29268,15.12195 6.09756,25.85366 6.09756,25.85366c0,0 -19.02439,6.34146 -4.39024,27.80488c14.63415,21.46341 24.39024,35.36585 28.78049,52.92683" id="Path 1"/><path d="M745.67649,526.84258l-2.43902,0.73171c0,0 -3.90244,-11.21951 -18.04878,-8.29268" id="Path 1"/><path d="M725.37637,519.24349c0,0 -18.96817,-1.18139 -22.38281,8.57471" id="Path 1"/><path d="M702.99356,527.8182l-2.43902,0.9756v3.17073l3.41463,-0.4878c0,0 -0.2439,11.46341 20,6.82927" id="Path 1"/><path d="M724.21308,537.81819c0,0 20.4878,3.90244 18.53659,-5.85366" id="Path 1"/><path d="M743.72528,531.96454l2.92683,13.17073l7.31707,0.2439l0.2439,-3.41463" id="Path 1"/><path d="M766.89601,469.28161" id="Path 1"/><path d="M769.82284,457.81819" id="Path 1"/><path d="M792.3068,457.80071" id="Path 1"/></g></g></g></svg>